<svg xmlns="http://www.w3.org/2000/svg" viewBox="0 0 320 499" width="320" height="499">
	<style>
		tspan { white-space:pre }
		.shp0 { fill: #010002 } 
	</style>
	<g id="Layer">
		<g id="Layer">
			<g id="Layer">
				<path id="Layer" fill-rule="evenodd" class="shp0" d="M179.06 484.13C175.88 492.59 167.81 498.18 158.79 498.22C149.76 498.25 141.64 492.72 138.4 484.31C94.36 369.99 5.77 223.1 5.77 153.34C5.77 68.8 74.54 0 159.12 0C243.66 0 312.45 68.8 312.45 153.34C312.46 223.31 222.56 368.58 179.06 484.13ZM159.12 29.16C92.8 29.16 38.86 83.11 38.86 149.4C38.86 215.73 92.8 269.7 159.12 269.7C225.42 269.7 279.36 215.75 279.36 149.4C279.35 83.11 225.42 29.16 159.12 29.16Z" />
			</g>
		</g>
	</g>
	<g id="Layer">
	</g>
	<g id="Layer">
	</g>
	<g id="Layer">
	</g>
	<g id="Layer">
	</g>
	<g id="Layer">
	</g>
	<g id="Layer">
	</g>
	<g id="Layer">
	</g>
	<g id="Layer">
	</g>
	<g id="Layer">
	</g>
	<g id="Layer">
	</g>
	<g id="Layer">
	</g>
	<g id="Layer">
	</g>
	<g id="Layer">
	</g>
	<g id="Layer">
	</g>
	<g id="Layer">
	</g>
</svg>